<svg height="350" viewBox="0 0 350 350" width="350" xmlns="http://www.w3.org/2000/svg"><g fill="none" stroke-miterlimit="10" transform="matrix(2.89 0 0 2.89 43.555556 43.555556)"><circle cx="45" cy="45" fill="#fff" r="43"/><circle cx="45" cy="45" fill="#fff" r="43"/><g fill="#000"><path d="m45 90c-12.02 0-23.321-4.681-31.82-13.181-8.499-8.499-13.18-19.799-13.18-31.819s4.681-23.321 13.18-31.82 19.8-13.18 31.82-13.18 23.32 4.681 31.819 13.18c8.5 8.499 13.181 19.8 13.181 31.82s-4.681 23.32-13.181 31.819c-8.499 8.5-19.799 13.181-31.819 13.181zm0-86c-10.952 0-21.248 4.265-28.992 12.008-7.743 7.744-12.008 18.04-12.008 28.992 0 10.951 4.265 21.247 12.008 28.991 7.744 7.744 18.04 12.009 28.992 12.009 10.951 0 21.247-4.265 28.991-12.009 7.744-7.744 12.009-18.04 12.009-28.991 0-10.952-4.265-21.248-12.009-28.992-7.744-7.743-18.04-12.008-28.991-12.008z"/><path d="m14.594 75.406c-16.793-16.793-16.793-44.019 0-60.811s44.019-16.793 60.811 0z"/></g></g></svg>