<svg height="45" viewBox="0 0 33 45" width="33" xmlns="http://www.w3.org/2000/svg" xmlns:xlink="http://www.w3.org/1999/xlink"><linearGradient id="a"><stop offset="0" stop-color="#e6e6e6"/><stop offset=".56" stop-color="#d8d8d8"/><stop offset="1" stop-color="#a1a1a1"/></linearGradient><linearGradient id="b" x1="43.923%" x2="78.855%" xlink:href="#a" y1="59.791%" y2="62.034%"/><linearGradient id="c" x1="2.783%" x2="109.278%" xlink:href="#a" y1="53.432%" y2="63.534%"/><g fill="none" fill-rule="evenodd"><path d="m13.242 52.512 6.701-23.295h26.804l6.7 23.295z" fill="#eed9c3"/><ellipse cx="41.94" cy="41.032" fill="#353535" rx="1.894" ry="1.875"/><path d="m29.408 38.9c0-.655-.536-1.185-1.197-1.185h-5.647c-.66 0-1.197.53-1.197 1.185v3.67c0 .983.804 1.779 1.795 1.779h2.056a4.213 4.213 0 0 0 2.963-1.216 4.127 4.127 0 0 0 1.227-2.933z" fill="#a78347"/><path d="m59.805 25.976-6.7 6.634v-6.634l8.376-6.634z" fill="#dca140"/><path d="m61.48 19.681-8.376 6.634v-6.634l10.052-6.634z" fill="#e1aa4f"/><path d="m53.204 6.953 13.302-6.835-3.35 13.269-9.952 6.834z" fill="#e3b261"/><path d="m6.884 25.976 6.701 6.634v-6.634l-8.375-6.634z" fill="#dca140"/><path d="m5.209 19.681 8.376 6.634v-6.634l-10.051-6.634z" fill="#e1aa4f"/><path d="m13.351 6.732-13.168-6.614 3.35 13.269 9.819 6.613z" fill="#e3b261"/><path d="m53.448 19.342s-10.052-6.634-20.103-6.634c-10.052 0-20.103 6.634-20.103 6.634v19.902l2.68 5.307c2.22-8.468 9.724-11.067 16.776-5.79l.647.483.646-.483c7.045-5.271 14.566-2.64 16.776 5.79l2.68-5.307v-19.902z" fill="#e3b261"/><path d="m19.097 10.176-5.361 31.18-7.392-5.307 6.052-22.556z" fill="url(#b)" transform="translate(7.547 39.02)"/><path d="m45.25 10.176-5.36 31.18-7.392-5.307 6.052-22.556z" fill="url(#b)" transform="matrix(-1 0 0 1 85.297 39.02)"/><path d="m5.695.225-5.36 19.902 6.7 13.268 5.36-19.902z" fill="url(#c)" transform="translate(7.547 39.02)"/><path d="m44.56.225-5.36 19.902 6.7 13.268 5.36-19.902z" fill="url(#c)" transform="matrix(-1 0 0 1 98.008 39.02)"/><path d="m26.644 49.195-6.03 32.507 12.73 6.634 12.733-6.634-6.031-32.507-6.201-3.07-.5-.247z" fill="#e6e6e6"/><path d="m35.746 50.522h-4.69v1.66c0 .616.247 1.205.687 1.64.44.436 1.035.68 1.657.68h.002c.622 0 1.218-.244 1.658-.68.44-.435.686-1.024.686-1.64z" fill="#353535"/></g></svg>